<?xml version="1.0" encoding="utf-8"?>
<!-- Generator: Adobe Illustrator 15.1.0, SVG Export Plug-In  -->
<!DOCTYPE svg PUBLIC "-//W3C//DTD SVG 1.1 Tiny//EN" "http://www.w3.org/Graphics/SVG/1.1/DTD/svg11-tiny.dtd" [
	<!ENTITY ns_flows "http://ns.adobe.com/Flows/1.0/">
]>
<svg version="1.1" baseProfile="tiny"
	 xmlns="http://www.w3.org/2000/svg" xmlns:xlink="http://www.w3.org/1999/xlink" xmlns:a="http://ns.adobe.com/AdobeSVGViewerExtensions/3.0/"
	 x="0px" y="0px" width="211px" height="92px" viewBox="113.8 13.2 211 92" overflow="visible" xml:space="preserve">
<defs>
</defs>
<path fill="#777673" d="M268,44c11.3,1.9,21.9-1.1,33.8,2.7c13,4.2,24.2,12.7,22.9,21.6C322.6,82.7,301.9,88.5,287,92
	c-7.6,1.8-14.7,3.2-22,4.4c-11.1,1.8-22.1,3.1-33.3,4.3c-10.5,1-23.6,1.9-34.9,2.5c-16.2,0.9-31.7,2.3-47.2-0.3
	c-8.3-1.3-35.8-10.4-34.8-19.8c0.6-5.9,8-10.1,13.4-13.5c15.1-9.6,32.2-13.3,47.9-18.3c6.4-19.1,26.3-30.3,42.4-35.2
	c2.4-0.7,5.2-1,7.3-1.4c8.1-1.8,20.2-2.5,30,6.6c5.3,5,7.3,10.9,9.9,17.4C266.2,40.4,264.7,43.3,268,44z"/>
<path fill="none" d="M0,689.2c0,0,185.4-457.7,278.1-686.5c0.6-1.4,1.2-3.1,2.3-2.6c412.3,168.3,1236.8,504.8,1236.8,504.8"/>
<path fill="#F0D967" d="M316.1,66.2c0,0.3,0.1,0.5,0.1,0.8c0.2,2-0.7,4.1-1.9,5.6c-2.3,3.4-6.1,4.8-9.9,6.2c-2.1,0.8-4.3,1.4-6.4,2
	c-2.6,0.8-5,2.5-8.1,3.3c-3.8,1-10.1,2-14.7,3c-14.2,2.8-29.6,3.9-45.3,6c-15,2-36,3.7-53.4,3.9c-7.5,0-14.9-0.1-22.4-1
	c-7.7-1.1-15.6-2.8-22.6-6.1c-2.2-1.1-4.5-1.9-6.6-3.2c-1.5-0.7-3.1-1.6-2.4-3.5c4.2-12.1,27.8-18.4,39-21.3
	c5.3-1.4,9.9-4.1,15.3-5.3c1-0.2,2.8-0.9,3.7-0.2c0.6,0.5,0.9,1.6,1.2,2.3c0.4,1,1.1,2,1.3,3c2.3,1.3,4.9,2.3,7.3,3.4
	c2.4,1.1,5,2.1,7.5,2.9c5.1,1.7,10.3,2.7,15.6,3.1c5.3,0.4,10.6,0.4,15.8,0c9.2-0.7,32.7-1.3,38.2-9.8c2.2-3.3-3.2-5.8,3.2-9.3
	c3.2-1.8,12.7,0.4,16.2,0.7c7.1,0.6,14.6,2,20.9,5.4c1.9,1.1,3.7,2.6,5.4,4.1C314.6,63.5,315.7,64.6,316.1,66.2z"/>
<path fill="#F0D967" d="M258.2,60.4c0,0.1,0,0.1,0,0.3c-11.1,1.1-22.5,1-33.6,1.5c-4.7,0.2-8.3,0.3-14.6-0.3
	c-5.8-0.5-11.6-2.4-17-4.1c-1.3-0.4-2.7-0.5-3.9-1.1c-1.9-1-0.7-2.3-0.1-3.8c0.5-1,1-2.1,1.6-3.1c1.1-1.9,2.6-3.7,4.2-5.4
	c3.2-3.4,7-6.1,10.8-8.7c2.1-1.4,4.2-2.6,6.4-3.9c5.2-3.2,11.8-3.9,17.9-4.8c6.4-0.8,13.6-1.1,18.8,3.7c2.2,2.1,2.6,5.4,3.5,8.2
	C254.1,46,256.4,53,258.2,60.4z"/>
</svg>
