<?xml version="1.0" encoding="utf-8"?>
<!-- Generator: Adobe Illustrator 15.1.0, SVG Export Plug-In  -->
<!DOCTYPE svg PUBLIC "-//W3C//DTD SVG 1.1 Tiny//EN" "http://www.w3.org/Graphics/SVG/1.1/DTD/svg11-tiny.dtd" [
	<!ENTITY ns_flows "http://ns.adobe.com/Flows/1.0/">
]>
<svg version="1.1" baseProfile="tiny"
	 xmlns="http://www.w3.org/2000/svg" xmlns:xlink="http://www.w3.org/1999/xlink" xmlns:a="http://ns.adobe.com/AdobeSVGViewerExtensions/3.0/"
	 x="0px" y="0px" width="286px" height="338px" viewBox="-1 -0.5 286 338" overflow="visible" xml:space="preserve">
<defs>
</defs>
<path fill="#777673" d="M282.1,100.4c-2-6.8-5.7-13-10-16c-1.2-0.8-2.8-0.3-4-1c-1.1-0.6-1.3-1.3-3-2c-1.9-0.8-5-0.7-7-3
	c2-19.3-11.2-23.5-22-30c-4.7-22.6-18.6-36.1-47-35c-4-4.3-7.4-10.3-12-12c-10.4-3.8-23.5,1.5-29,4c-3.2,1.5-6.4,2.4-9,4
	c-5.8,3.5-10.3,8.7-15,10c-4.9-3.4-7.5-4.3-12-5c-14.9-2.2-24.5,2.2-31,6c-2.6,1.5-5.1,2.4-7,4c-4.3,3.5-6.5,9.2-11,11
	c-2.5,1-6.5-0.4-9,0c-4.8,0.9-9.4,5-12,7c-0.8,0.6-2.2,0.3-3,1c-2.6,2.3-5.3,6.6-8,10c-6.3,8-10,12.6-10,25c0-1.8-12,3.4-13,4.3
	c-7.5,6.2-8,17-7.9,26c0.2,10-0.3,14.8,2.1,24.7c1.4,5.9,6.6,14.9,7.8,21.2c1.1,5.8-0.6,11.6,0,16c1.4,10.1,6.2,16.9,12,22
	c2.9,2.5,6.5,5.8,10,7c5.5,1.9,9.9,0.2,14,2c5.5,2.4,10.8,10.9,15,14c8.6,6.4,20,4,32,2c6.7-1.1,12.5-4.9,18.8-2.2
	c2.7,1.2,2.3,5,3.2,8.2c1.8,2.9,7.2,2.8,8,6c2,11,2.8,22.9,2,33c-2.4,28.1-20.7,47.6-24.8,73.9c4-1.6,7.8-3.5,11.7-5.3
	c16-7.6,44,1.1,60.9,3c7.5,0.9,17.8,3.1,25.3,2.5c1-2.5-1.8-5.1-3-7c-3.8-6.1-6.9-16.4-10-23c-5-10.7-10.2-27.5-13-39
	c-4-16.5-1.9-35.9-1-56c9.5,5.9,28.9,2.2,35-3c2.9-2.5,4.5-6.2,7-8c7.1,2.4,18.1,3.2,27,2c5.8-0.8,13.7-4,16-7l2-3
	c1.9-4.3,0.6-9.7,1-17c7-1.6,12.7-2.9,15-8c0.2-0.3,1.8-0.6,2-1c4.4-7.6,3.6-19.2,1-29c1.8-4.3,5.9-7.5,7-13
	C285.4,117.6,284.1,107.4,282.1,100.4C280.1,93.6,284.1,107.4,282.1,100.4C280.1,93.6,284.1,107.4,282.1,100.4z M178,320.6
	c1.2,1.2,2.2,2.6,3.2,4c-20.4,2.1-37.4-3.2-57.3-3.9c3.7-5.4,7-11.9,10-19.1c5.4-12.9,9.3-28.5,10-42c0.6-11.5-0.9-20.8-2-30
	c-2.3-18.9-10.1-33.1-15-48c5.3,0.3,9.9,0,13-2c4.6,5.1,9.4,9.9,18,11c4.3,12.4-3.7,33.8-3.7,47.4c-0.1,15.4,2,29.1,6.7,43.7
	C165,292.4,171,312.8,178,320.6C179.2,321.8,177.1,319.6,178,320.6C179.2,321.8,177.1,319.6,178,320.6z"/>
<path fill="#D3E59E" d="M268,97.4c-2.2-2.3-5.8-6.3-8-7c-11-3.3-20,4.2-21-7c-0.6-6.2,6-6.3,6-12c0-5.8-4.8-8-10-11
	c-5.4-3.1-9.9-3.7-12-9c-1.1-2.8,0.6-7.3,0-10c-0.3-1.4-3.2-4.5-5-7c-3.3-4.6-4.7-6-8-8c-7.4-4.6-20.2-1.9-31-4
	c-3.3-2.1-2.7-7.9-5-11c-11.3-2.7-16.9,0.6-25,5c-3.6,2-11,6.2-13,8c-4,3.7-5.7,11.6-12,11c-3.2-0.3-3.1-1.7-5-4c-2.5-3-2-3.7-5-5
	c-11.3-4.9-26.5,2.1-31,6c-4.8,4.2-7,13.6-14,15c-3.8,0.8-8.4-2.5-12-2c-1.4,0.2-1.7,1.5-4,3c-1.4,0.9-4.1,1.2-5,2
	c-0.9,0.8-1.7,2.4-3,4c-3.8,4.6-7.5,9.1-9,14c-2.4,7.7,3.8,14.2-2,21c-5.2,3.4-8.7-2.3-15-1c-6.6,4.9-7.5,12.6-8,19
	c-0.9,11.9,1.7,19,5,26c1.2,2.5,2.8,6.7,4,8c6.5,6.8,1,25.8,6,34c2.3,3.7,10.5,9.2,14,10c3.4,0.8,8.2-0.7,12,1c2,0.9,3.3,3,5,5
	c7.7,9.1,11.8,16.8,27,17c8,0.1,17.1-4.5,25-4c3.4,0.2,6.1,1.4,10,2c-3-13.3-8-22.7-11-36c-4.3,0.8-6.6,4.3-11,5
	c-12.8,2.1-28.1-7.1-28-17c0-4.8,1.4-11.5,6-10c4.1,1.4,4.9,6.4,7,8c3,2.2,5.3,5,10,5c4.7,0,7.6-3.7,11-6c1.7-1.1,2.3-3.2,4-4
	c2.3-1.1,5.8-1.7,8-1c4.8,1.4,4.1,6.8,7,12c4.9-0.5,7,0.7,10,0c5.2-1.2,6.7-7.2,12-7c10.6,0.4,7,15.6,14,17c7.2,1.5,8.1-10.8,14-12
	c3-0.6,4.8,1.4,7,2c2.3,0.6,4,1.6,9,1c1.5-5.7-3.8-12.3,1-15c6.4,2.6,6.2,11.8,6,21c-4.3,3.3-11.4,4-19,4c-0.2,2.7-4.8,6.2-5,7
	c-0.1,0.6,0.3,6.9,1,9c1.2,3.4,5.9,7.8,7,8c11.9,2.2,20.9-1.8,23-9c1.2-4.1-0.8-6.9,2-10c4.4-4.9,9.6,0.9,11,4c1,2.2,4,1.9,5,4
	c9.9-0.4,22.4,1.8,27-4c1-8.5-5.5-13.2-2-21c6.2-3.4,15.5-0.8,19-5c3-3.6,1.6-11.4,1-16c-0.2-1.5-1.8-3.3-2-4
	c-2.3-10.7,6.8-13.1,8-18C272.2,113.8,269.4,98.8,268,97.4C265.8,95.1,269.4,98.8,268,97.4z"/>
<path fill="#777673" d="M42.9,142.4c5.4-0.2-4,12.1,5,10c0.2,2.5-0.5,4.2-2,5c1.8,3.5,8,2.6,9,7c-5.3,0-8.1-2.6-12-4
	c0.1-1.6-0.5-3.8,1-4C40.4,154.7,39.4,145.2,42.9,142.4z"/>
<path fill="#777673" d="M229,97.4c8,3,3.9,19.7-7,16c-2.2-0.2-0.5,3.5-1,5c-5.1,1.6-7.2,6.2-10,10c-8.8,1.3-16.7-3.1-13-11
	c4.5,0.5,4.1,5.9,9,6c3-0.7,3.4-4,3-8c1.2-1.2,3.5-1.1,6-1c0.3-4.2-1.3-3.9,0-7c4-0.3,5.5,1.8,10,1C229.5,107.3,229,102.2,229,97.4z
	"/>
<path fill="#777673" d="M62.9,68.4c-1.1,3.2-2.7,5.9-3,10c3.2,3.6,4.4-4,7-1c0,2.7,0,5.3,0,8c3.6-0.4,3.7-2.7,7-1
	c0.8,2.9,1.6,5.8,4,7c5.8,1.5,2.9-5.8,7-6c4.6,0.8,1,8.8-2,10c-2.1,0.8-4.5-0.6-7,0c-1.1-2.5-4-3.4-4-7c-2.7,0-5.3,0-8,0
	c0-1.7,0-3.3,0-5c-0.4-2.2-5.3,0-6-2C58,75.5,57,68.5,62.9,68.4z"/>
<path fill="#777673" d="M178,60.4c0.3,2.3,1.6,3.8,1,7c1.3,2.3,4.7,9.9-2,9c2.2-5.5-3.8-5.4-2-13c-0.9-2.5-7,0.3-8-2
	c-0.8-2.8,1.4-2.6,1-5c-1-4.5-4,1.7-6-1c1.8-5.3,10.6-5.2,9,3C172.2,60.2,176.2,59.2,178,60.4z"/>
</svg>
