<?xml version="1.0" encoding="utf-8"?>
<!-- Generator: Adobe Illustrator 15.1.0, SVG Export Plug-In  -->
<!DOCTYPE svg PUBLIC "-//W3C//DTD SVG 1.1 Tiny//EN" "http://www.w3.org/Graphics/SVG/1.1/DTD/svg11-tiny.dtd" [
	<!ENTITY ns_flows "http://ns.adobe.com/Flows/1.0/">
]>
<svg version="1.1" baseProfile="tiny"
	 xmlns="http://www.w3.org/2000/svg" xmlns:xlink="http://www.w3.org/1999/xlink" xmlns:a="http://ns.adobe.com/AdobeSVGViewerExtensions/3.0/"
	 x="0px" y="0px" width="132px" height="280px" viewBox="-0.5 -0.5 132 280" overflow="visible" xml:space="preserve">
<defs>
</defs>
<path fill="#777673" d="M97.3,126.1c6.7,14,14.2,27.1,16,46c6.7,0,12.9,1,15,5c1.5,2.8,1,10.2-1,13c-3.5,4.9-12.3,4.6-19,5
	c-1.2,2.9,3.3,8.7,2,15c-2.4,1.6-4.3,3.7-9,3c-0.4,10-1.5,19.1-1,30c6.1,1.5,11.9,1.5,16,5c4.5,3.8,6.2,18.7,0,23
	c-3.7,2.6-21.9,2.5-30,2c-2.3-0.1-6-1.3-8-1c-3,0.5-5.7,3.8-9,5c-9.4,3.5-30.9,3.4-38-3c-4.4-15,4.6-24,16-27c2.1-7,0.5-17.5,1-26
	c-4.9-1.7-12.8-0.5-15-5c0.2-5.7-0.8-12.8,1-17c-3.8-1.4-6,1.4-10,1c-14.8-1.5-16-22.1,0-26c-1.4-12.6,2.8-21.8,6-31
	c2.1-6.1,3.6-12.9,8-17c-4.2-3.1-9.6-5-14-8c-0.3-3.4-1.6-5.7-1-10c-1.3-4.6-7.1-4.9-8-10c-1.4-1.6-4.9-1.1-6-3
	c-4.8-12.5-2.2-31-1-46c-1.4-2-3.2,4-8,2c-1.4-8.1,2.8-13.4,8-20c1.7-2.1,3.5-5.6,5-7c0.7-0.7,2.2-0.4,3-1c1.2-0.9,3.8-3.8,6-5
	c3.1-1.7,7.6-2,11-4c7.4-4.3,9.9-7.6,9-7c5.8-3.8,9.6-6.5,17-7c16.6-1.2,27.6,6.2,39,15c2.6,1.1,3.5-4.3,5-1c9.8,3.2,15.6,12,21,21
	c1.5,2.5,4.4,5.8,5,9c1.3,7.5,1.6,18.2,1,26c-0.9,10.5-5.8,19.9-8,28c-4.4,1-5,5.7-7,9c-2.5,1.2-3.4,4-7,4
	C108.6,120.1,104.5,124.6,97.3,126.1z"/>
<path fill="#E1EAEF" d="M69.3,257.1c-1.4,1.9,1.4,7.9,1,9c-2.1,6.4-27.4,8-34,3c-0.9-10.2,5.1-13.6,11-17
	C54,254.4,59.9,257.5,69.3,257.1z"/>
<path fill="#E1EAEF" d="M112.3,255.1c0,2.7,0,5.3,0,8c-8.4,4-23.5,1.2-35,2c0-3,0-6,0-9c9.8,1.2,16.1-1.3,22-5
	C102.2,249.2,107.9,252.3,112.3,255.1z"/>
<path fill="#E1EAEF" d="M68.3,217.1c1.7,8.4,1.6,23.6,0,32c-3.5,1.8-8.2,0.8-12,0c-3.4-6.9-1.5-19.2-2-29
	C58.4,218.5,65,219.5,68.3,217.1z"/>
<path fill="#E1EAEF" d="M94.3,214.1c2.8,9.5-2.2,19.8-1,31c-3.2,3.1-10.9,1.7-17,2c0-10.7,0-21.3,0-32
	C82,214.4,90.3,216.4,94.3,214.1z"/>
<path fill="#E1EAEF" d="M95.3,174.1c-0.7,12.1,4.2,18.4,5,29c-6.3,1.7-13.5,2.5-22,2c0.9-9.3,3.4-20-4-21c-8.4-1.1-7.4,12.7-8,23
	c-6.4,1.7-18.4,2.7-24,2c-0.9-12.6,1.3-22,2-33C59.2,173.4,80.3,176.8,95.3,174.1z"/>
<path fill="#E1EAEF" d="M104.3,166.1c3.1,3.2,1,11.7,5,14c4.6,0.1,10.1-0.8,12,2c-0.5,6.5-9.2,4.8-16,5
	C102.5,180.9,97.4,170.8,104.3,166.1z"/>
<path fill="#E1EAEF" d="M39.3,133.1c3.1,11.4-7.8,29.5-2,42c1.6,3.4-0.7,8.9-2,13c-3.5,0.2-8.7,3.9-12,1c-0.2-5.2,8.3-1.7,10-5
	c1.1-7.6-0.9-15.1,0-23C34.3,151.5,39.3,142.2,39.3,133.1z"/>
<path fill="#E1EAEF" d="M46.3,128.1c12.4,2.2,30.9,3.4,43,0c3.8,10.2,6,22,7,35c-9.3,7.6-38-0.2-53,5
	C42.3,152.8,47.4,143.6,46.3,128.1z"/>
<path fill="#E1EAEF" d="M114.3,94.1c2.8,4.5-1,11-5,12C107.8,99,112,97.5,114.3,94.1z"/>
<path fill="#E1EAEF" d="M22.3,87.1c1.2-0.2,1.8,0.2,2,1c0,4.3,0,8.7,0,13C17.2,100.8,18.8,90.2,22.3,87.1z"/>
<path fill="#E1EAEF" d="M66.3,44.1c0.9-0.2,0.9,0.4,1,1c0.9-0.2,0.9,0.4,1,1c2.9,6.4,4.9,13.3,8,20c1.2,2.7,3,6,5,10
	c1.4,2.8,2.3,8.3,7,8c4.8-0.2,2.5-4.5,3-9c3.1,1.5,3.1,5.3,5,9c1.4,2.8,4.4,5.7,5,9c1.5,7.7-0.9,16.1-2,24c-18.7,7.9-54.6,7-70-3
	c1.9-11.5-2.6-28,0-38c0.9-3.5,4.7-5,5-8c3.2-1.2,0.8,3.2,4,2c5.1-1.3,8-6.3,12-10C56,54.7,62.2,51.2,66.3,44.1z"/>
<path fill="#E1EAEF" d="M55.1,15.8c-3.3-3.8-9.5-2.5-14.4-1.7c2.5-3.4,3.8-2.9,7.7-4.6s6.4-5.1,10.7-5.6c15.7-1.9,29.5,9.1,39,16
	c2.4,0.4,2.2-1.8,5-1c6,5.6,10.8,7.4,16,15c3.7,5.4,6.2,9.3,7,19c0.5,6.5,0.5,14.1,0,20c-0.2,2.1-1.7,4.5-2,7c-0.8,5.9,0.3,9.2-3,13
	c-3.8-5.4,3.4-10.8-0.9-16.7c-6.4,1.2-4.4,8.8-8.1,12.8c-3.8-7,5.6-21.4-2-26c-6.8-0.8-3.9,8.1-10,8c-0.3-3.1-5-9.2-7-12
	c-1.7-2.3-0.2-3.1-3-3c-3.1,0.1-5.7,1.4-5,9c-5.6-8.7-7.1-21.6-14-29c-3.2-2.5-3.4,3.3-5,4c-1.8,0.8-2.6,1.3-4,3
	c-3.2,3.8-8.2,8.4-12,13c-1.6-1.4,2-8.7-3-9c-8.2,3.4-10.6,12.8-16,19c-1.8,0.1-2.1-1.2-4-1c0.6,5.6-2.3,7.7-2,13
	c-1.8-0.9-1.6-3.7-4-4c-3.1,0.2-4.8,1.8-5,5c-1.3-7.7-1.7-17.1-1-26c0.5-5.6,4.5-11.5,0-15c-2.3,0.3-4.3,1-5,3c-1.3-3.6,3-4.6,5-7
	c0.7-0.8,0.3-2.2,1-3c1.2-1.3,5-4,7-6c0.9-0.8,7.9-4.5,10-5c1.6-0.4,3.4,0.4,5,0c1.9-0.4,3.3-1.7,5-2C46.7,17.2,52,19.8,55.1,15.8z"
	/>
<path fill="#777673" d="M67.3,104.1c1.1,10.1-14.1,9.3-10,0c2.2-0.2,3.2,0.8,3,3C62.9,106.4,64.1,101.2,67.3,104.1z"/>
<path fill="#777673" d="M45.3,82.1c7.1-0.7,5.9,10.4,0,10C42.3,90.1,43.2,84.5,45.3,82.1z"/>
<path fill="#777673" d="M75.3,81.1c1,0,2,0,3,0c2.1,1.1,4.1,10.5-1,10C73,90.1,72.6,83.9,75.3,81.1z"/>
</svg>
