<?xml version="1.0" encoding="utf-8"?>
<!-- Generator: Adobe Illustrator 15.1.0, SVG Export Plug-In  -->
<!DOCTYPE svg PUBLIC "-//W3C//DTD SVG 1.1 Tiny//EN" "http://www.w3.org/Graphics/SVG/1.1/DTD/svg11-tiny.dtd" [
	<!ENTITY ns_flows "http://ns.adobe.com/Flows/1.0/">
]>
<svg version="1.1" baseProfile="tiny"
	 xmlns="http://www.w3.org/2000/svg" xmlns:xlink="http://www.w3.org/1999/xlink" xmlns:a="http://ns.adobe.com/AdobeSVGViewerExtensions/3.0/"
	 x="0px" y="0px" width="136px" height="280px" viewBox="-0.5 -0.5 136 280" overflow="visible" xml:space="preserve">
<defs>
</defs>
<path fill="#777673" d="M117.9,170c0.4,3.1,5.4,2.1,8,3c2.3,0.9,5.7,1.5,7,4c1.6,3,1.1,10-1,13c-3.4,4.8-10.7,4.4-19,5
	c-1.2,2.9,3.3,8.7,2,15c-2.4,1.6-4.3,3.7-9,3c-0.4,10-1.5,19.1-1,30c5.7,1.5,11.8,1.5,16,5c2.7,2.2,7,13.5,3,20
	c-3.7,6-21.2,5.7-33,5c-2.5-0.2-6-1.3-8-1c-4,0.6-7.5,4.8-12,6c-9.3,2.6-29.3,1.6-35-4c-2-8.2-1-15.2,3-20c3.6-4.3,9.6-4.2,13-8
	c2.2-6.4,0.4-16.9,1-25c-3.5-2.2-11.3,0-14-3c-1.8-4.8-0.7-12.6-1-19c-3.9-0.7-6.9,1.8-11,1c-3.8-0.7-9.5-5.8-10-11
	c-0.6-7.1,4.4-12.5,12-15c0.5-4.9-1-11.7,1-15c-3.8-5.7-7.9-5.4-10-11c-1-2.7-1.4-10.9-1-17c0.4-5.9,2.5-11.6,2-17
	c-0.4-4.8-3.1-8.4-4-12c-2.6,0.8,0.7,7.4-3,7c-4.3-0.8-5-6.3-6-10c-1.3-4.5-1.6-9.4-2-14c-0.3-3.1-4.5-2.2-5-5
	c-1.4-11.2-1.3-21.4,1-31c2-8.5,4.9-13.7,10-20c4.3-5.2,7.5-8.6,13-12c1.1-0.7,2.9-1.3,4-2c5.6-3.4,11.9-7.5,19-11
	c2.9-1.5,10.4-3.8,16-4c14.8-0.6,27.4,8,39,18c2.5,1.1,4.3-3.4,7-1c8,7.2,13.7,9.1,19,18c3.2,5.4,5.4,9.6,6,19
	c0.5,8.4,0.7,17.6-1,25c-0.7,2.7,0.3,4.9,0,8c-0.3,3-2.2,5.9-2,9c0.6,9.2,0.8,21.8,0,33c-0.3,3.8-1.5,8-2,12c-0.9,7.1-0.5,13.2-3,18
	S118.9,164.2,117.9,170z"/>
<path fill="#FDDAC3" d="M73.9,258c-1.4,1.9,1.4,7.9,1,9c-2.1,6.4-27.4,8-34,3c-0.9-10.2,5.1-13.6,11-17
	C58.6,255.3,64.5,258.4,73.9,258z"/>
<path fill="#FDDAC3" d="M116.9,256c0,2.7,0,5.3,0,8c-8.4,4-23.5,1.2-35,2c0-3,0-6,0-9c9.8,1.2,16.1-1.3,22-5
	C106.8,250.1,112.5,253.2,116.9,256z"/>
<path fill="#FDDAC3" d="M72.9,218c1.7,8.4,1.6,23.6,0,32c-3.5,1.8-8.2,0.8-12,0c-3.4-6.9-1.5-19.2-2-29
	C63,219.4,69.6,220.4,72.9,218z"/>
<path fill="#FDDAC3" d="M98.9,215c2.8,9.5-2.2,19.8-1,31c-3.2,3.1-10.9,1.7-17,2c0-10.7,0-21.3,0-32C86.6,215.4,94.9,217.3,98.9,215
	z"/>
<path fill="#FDDAC3" d="M82.9,131c5.6,26.1,18,45.3,22,73c-17.5,3.2-40.5,6.2-58,6c-1.5-11.7,2.3-22.3,4-33c2.3-14.5,0.5-31,4-44
	c0-1,0-2,0-3C63.8,130.8,72.9,131.4,82.9,131z"/>
<path fill="#FDDAC3" d="M96.9,129c6.1,10.6,11.4,24.7,14,39c0.8,4.5-1.2,9.7,3,13c4.6,0.1,10.1-0.8,12,2c-0.5,6.5-9.2,4.8-16,5
	c-5.1-8.6-8.4-18.3-12-28c-3.5-9.6-8.3-19.1-10-30C91.8,130.5,92.8,128.2,96.9,129z"/>
<path fill="#FDDAC3" d="M44.9,129c0.8,0.5,1.6,1,3,1c1.3,3.2-0.6,6.7-1,10c-1.7,16-2.5,35.1-7,49c-3.5,0.2-8.7,3.9-12,1
	c-0.2-5.2,8.3-1.7,10-5c1-8-0.8-15.3,0-23c0.5-5.1,2.9-10.1,4-15C43.3,140.7,43.7,135.8,44.9,129z"/>
<path fill="#FDDAC3" d="M25.9,106c4.2,3.5,0.8,8.1,3,12c2.6,4.7,9,5.5,14,8c-5.2,7.5-8,17.3-11,27C16.7,147,27.9,122.5,25.9,106z"/>
<path fill="#FDDAC3" d="M118.9,95c2.8,4.5-1,11-5,12C112.4,99.9,116.6,98.4,118.9,95z"/>
<path fill="#FDDAC3" d="M26.9,88c1.2-0.2,1.8,0.2,2,1c0,4.3,0,8.7,0,13C21.8,101.7,23.4,91.1,26.9,88z"/>
<path fill="#FDDAC3" d="M70.9,45c0.9-0.2,1,0.4,1,1c0.9-0.2,1,0.4,1,1c2.9,6.4,4.9,13.3,8,20c1.2,2.7,3,9,5,13c1.4,2.8,2.3,8.3,7,8
	c4.8-0.2,2.5-7.5,3-12c3.1,1.5,3.1,5.3,5,9c1.4,2.8,4.4,5.7,5,9c1.5,7.7-0.9,16.1-2,24c-5.1,1.1-11.1,4.2-18,5
	c-18.6,2.1-40.8-1-52-8c1.9-11.5-2.6-28,0-38c0.9-3.5,4.7-5,5-8c3.2-1.2,0.8,3.2,4,2c5.1-1.3,8-6.3,12-10
	C60.6,55.6,66.8,52.1,70.9,45z"/>
<path fill="#FDDAC3" d="M116.9,163c-4.3-12.3-8.4-24.9-15-35c5.8-3.2,11.9-6.1,11-16c3.5-0.6,8.7-4.6,10-9c0.9-3.1-0.5-7.8,0-12
	c0.7-5.3,5.5-10.5,2-14c-6.4,1.2-6.3,9-10,13c-3.8-7,5.6-21.4-2-26c-6.8-0.8-3.9,8.1-10,8c-0.4-3.1-5-9.2-7-12c-1.7-2.3-0.2-3.1-3-3
	c-3.1,0.1-5.7,1.4-5,9c-5.6-8.7-7.1-21.6-14-29c-3.2-2.5-3.4,3.3-5,4c-1.8,0.8-2.6,1.3-4,3c-3.1,3.8-8.2,8.4-12,13
	c-1.6-1.4,1.6-7.5-2-9c-2.8-0.4-4.6,1.6-6,3c-4.1,4-6.3,10.1-10,15c-1.9,1.9-2.5,0.1-5,0c-2,6-0.5,14.5-2.9,17
	c-3.1,3.1-7.5,6.3-7.1,12c-3.6-3.1-6.7,0.7-7,4c-3.7-8.5-1.7-23.9-1-34c-2.9-3.9-5.9,3.3-7,1c0.8-8.7,1.5-17.8,5-25
	c1.3-2.6,4.7-5.2,7-8c2.5-3,3.9-6.2,6-8c2.6-2.3,7.3-3.7,11-6c1.6-1,2.6-3.2,4-4c1.6-1,4.1-1.1,6-2c8.9-4.4,16.7-8.5,25-8
	c12.4,0.7,21.3,9.8,32,17c2.4,0.4,2.6-0.7,5,1c5.2,3.7,7.9,1.9,12,6c0.8,0.8,0.8,2.5,2,4c1.5,1.8,3.1,2.9,5,6c3.4,5.6,6.5,23,5,35
	c-0.4,2.9-1.4,7.3,0,12c0.1,0.3-1,1.8-1,2c0.2,2.3-0.9,6-1,9c-0.5,14.1-0.2,28.9-2,42C124.4,149.3,124.2,158.9,116.9,163z"/>
<path fill="#777673" d="M71.9,104c1.1,10.1-14.1,9.3-10,0c2.2-0.2,3.2,0.8,3,3C67.5,106.3,68.7,101.1,71.9,104z"/>
<path fill="#777673" d="M49.9,83c7.1-0.7,5.9,10.4,0,10C46.9,91,47.8,85.4,49.9,83z"/>
<path fill="#777673" d="M79.9,82c1,0,2,0,3,0c2.1,1.1,4.1,10.5-1,10C77.6,91,77.2,84.8,79.9,82z"/>
</svg>
