<?xml version="1.0" encoding="utf-8"?>
<!-- Generator: Adobe Illustrator 15.1.0, SVG Export Plug-In  -->
<!DOCTYPE svg PUBLIC "-//W3C//DTD SVG 1.1 Tiny//EN" "http://www.w3.org/Graphics/SVG/1.1/DTD/svg11-tiny.dtd" [
	<!ENTITY ns_flows "http://ns.adobe.com/Flows/1.0/">
]>
<svg version="1.1" baseProfile="tiny"
	 xmlns="http://www.w3.org/2000/svg" xmlns:xlink="http://www.w3.org/1999/xlink" xmlns:a="http://ns.adobe.com/AdobeSVGViewerExtensions/3.0/"
	 x="0px" y="0px" width="172px" height="78px" viewBox="-0.3 -0.9 172 78" overflow="visible" xml:space="preserve">
<defs>
</defs>
<path fill="#A0CAA1" d="M80.9,0.1c3.1,4.5,1.9,9.8,7.3,10.8C94,12,96.9,6.4,99.1,1c4.7-0.4,17.8-2.5,21.8,1.8
	c0.8,0.9,0.6,2.2,1.8,3.6c1.6,1.7,3.4,3.2,5.3,4.6c1.9,1.4,3.1,2.8,4.7,4.4c1.1,1.1,3.1,1.2,4.2,2.4c0.9,1,1,1.7,2.1,2.5
	c3.8,2.8,7.3,5.7,10.9,8.6c7,5.5,20.2,12.3,20.9,17.1c0.3,2.2-2.4,6-3.6,8.1c-1.8,3.1-4.5,9.5-7.3,11.7c-6.1,0.5-8.9-5.4-12.7-8.1
	c-1.9-1.3-4.5-1.6-6.4-2.7c-4.4-2.7-8.7-7.4-14.5-9.9c-2.8,9.4,0.7,20.3,1.8,28.8c-3.6,4.1-10.6,2.7-16.4,2.7c-5.8,0-12.1,0-18.2,0
	c-12.1,0-25.6,1.3-34.5-1.8C57.2,63,59.2,47.3,60,35.1c-2.7-1.8-4.1,2.4-5.5,3.6c-4.9,4.5-10.6,9.5-16.4,14.4
	c-1.6,1.3-2.7,3.1-4.3,4.4c-1.4,1.2-3.4,1.5-4.8,2.8c-1.1,1-1.2,2.3-2.5,3.1c-1.3,0.8-2.6,1.1-3.8,2.1c-1.9,1.7-4.5,5.5-7.3,5.5
	c-2.1,0-7.2-3.6-10-7.2c-1.1-1.4-1.6-4.3-2.7-6.3c-1.5-2.8-2.9-3.1-2.7-5.4c0.3-4.5,6-7.2,10-10.8c1.3-1.2,1.6-2.7,2.7-3.6
	c0.7-0.6,2-0.3,2.7-0.9c2.6-2,4.8-4.6,7-7.1c1.8-2,3.4-4.2,5.6-5.8c1.4-1,3-1.4,4.3-2.4c1.3-1,2.3-2.5,3.6-3.5
	c3.5-2.7,7-5.3,10.4-8.2c2.5-2.2,6.6-7.8,10-9C61.5-0.8,74.3,0.5,80.9,0.1z"/>
<path fill="#E0EAAA" d="M77.3,3.7c2.4,0.2,1.3,3.2,1.8,4.5c1.5,4.2,5.1,8.8,13.6,7.2c2.5-0.4,2.3-2.6,4.5-3.6
	c2.4-1.1,5.7-3.8,5.5-8.1c3,1.8,9.2,0.5,13.6,0.9c5.2,8.7,13.6,14.5,21.8,21.6c1.9,1.6,3.1,3,5.5,4.5c3.4,2.2,6.5,6.3,10.9,9
	c3,1.9,6.3,4.3,9.1,7.2c-1.5,3.9-3.9,7-5.5,10.8c-3.7-1.1-6.1-4.3-9.1-6.3c-2.3-1.5-4.8-3-7.3-4.5c-6.2-3.8-14-9.2-21.8-12.6
	c-1.6,10.1-1.9,21.5-1.8,33.3c-14.8,2.9-35.1-0.2-53.6,0.9c-1.1-13.3,2.6-31.4-2.7-40.5c-0.6,1-3.2-0.1-3.6,0
	c-4.5,0.8-6.6,5.1-10.9,9c-1,0.9-2.6,1-3.6,1.8c-2.8,2.4-6.5,7.3-10,9.9c-1.8,1.3-3.2,2.8-5.5,4.5c-3.8,2.9-8.5,8.8-13.6,10.8
	c-3.6-2.7-5.7-6.9-8.2-10.8c-2.9-4.7,43.2-40.2,49.1-45c1-0.8,2.6-2.7,2.7-2.7C61.9,4,67.9,5,71.8,4.6C73.9,4.3,75.1,3.2,77.3,3.7z"
	/>
</svg>
