<?xml version="1.0" encoding="utf-8"?>
<!-- Generator: Adobe Illustrator 15.1.0, SVG Export Plug-In  -->
<!DOCTYPE svg PUBLIC "-//W3C//DTD SVG 1.1 Tiny//EN" "http://www.w3.org/Graphics/SVG/1.1/DTD/svg11-tiny.dtd" [
	<!ENTITY ns_flows "http://ns.adobe.com/Flows/1.0/">
]>
<svg version="1.1" baseProfile="tiny"
	 xmlns="http://www.w3.org/2000/svg" xmlns:xlink="http://www.w3.org/1999/xlink" xmlns:a="http://ns.adobe.com/AdobeSVGViewerExtensions/3.0/"
	 x="0px" y="0px" width="171px" height="78px" viewBox="-0.5 -0.5 171 78" overflow="visible" xml:space="preserve">
<defs>
</defs>
<path fill="#A0CAA1" d="M168.2,42.1c-5.9-5.7-13.5-9.3-19.9-14.4C141.4,22.1,135,16.2,128,11c-1.9-1.4-3.7-2.9-5.3-4.6
	c-1.1-1.3-1.1-3.1-2.5-4.2c-2.5-1.9-6.2-2-9.2-2c-3.4,0-6.7,0.3-10.1,0.7c-3.2,0.3-3.9,5.7-6.3,8.1c-2.4,2.4-7,3.2-9.5,0.3
	c-2-2.3-2.2-5.7-3.7-8.4c-0.1-0.2-0.2-0.5-0.4-0.8c-0.4,0-0.8,0-1.2,0.1c-6.3,0.2-12.7-0.5-19,0c-6,0.4-8.8,3.8-12.8,8
	c-2.7,2.9-6,5.2-9.1,7.6c-2.6,2-5,5.2-8,6.6c-6.5,3.3-9.8,10.1-15.5,14.5c-1.7,1.5-2.9,1-4.4,3.2c-0.9,1.4-2.3,2.4-3.6,3.3
	c-2.4,1.8-5.2,3.6-6.7,6.2c-1.5,2.7-0.5,4.3,1.1,6.5c1.7,2.3,1.8,5.5,3.6,7.7c3.7,4.7,9.4,9.7,14.5,4.6c2.2-2.2,4-3.4,6.6-5
	c1.2-0.7,1.5-2.2,2.5-3.1c1-1,2.4-1.4,3.7-2c3.2-1.7,5.9-5.5,8.6-7.8c3.1-2.6,6.1-5.3,9.1-7.9c2.2-2,4.2-3.9,6.1-6.3
	c0.6-0.8,1.4-1.7,2.5-1.5c1.9,0.2,0.9,2.5,0.8,3.8c-0.6,8-1.4,16-1.5,24.1c0,3.5,0.1,7.1,0.5,10.6c0.4,3,5.4,3,8.1,3.3
	c15.9,1.7,32.1-0.5,48.1,0.3c3.5,0.2,7.6,0.6,10.9-1.1c3.5-1.8,1.7-5.3,1.1-8.5c-1.3-7.2-2.8-14.9-0.7-22c4.5,1.9,8,5.2,11.9,8.1
	c3.4,2.6,7.8,3.1,10.9,6.1c2.4,2.4,4.6,5.4,8.1,6.3c4.2,1.1,5.9-3.5,7.6-6.6C167.4,53.7,173.6,47.4,168.2,42.1z"/>
<path fill="#E0EAAA" d="M77.3,3.7c2.4,0.2,1.3,3.2,1.8,4.5c1.5,4.2,5.1,8.8,13.6,7.2c2.5-0.4,2.3-2.6,4.5-3.6
	c2.4-1.1,5.7-3.8,5.5-8.1c3,1.8,9.2,0.5,13.6,0.9c5.2,8.7,13.6,14.5,21.8,21.6c1.9,1.6,3.1,3,5.5,4.5c3.4,2.2,6.5,6.3,10.9,9
	c3,1.9,6.3,4.3,9.1,7.2c-1.5,3.9-3.9,7-5.5,10.8c-3.7-1.1-6.1-4.3-9.1-6.3c-2.3-1.5-4.8-3-7.3-4.5c-6.2-3.8-14-9.2-21.8-12.6
	c-1.6,10.1-1.9,21.5-1.8,33.3c-14.8,2.9-35.1-0.2-53.6,0.9c-1.1-13.3,2.6-31.4-2.7-40.5c-0.6,1-3.2-0.1-3.6,0
	c-4.5,0.8-6.6,5.1-10.9,9c-1,0.9-2.6,1-3.6,1.8c-2.8,2.4-6.5,7.3-10,9.9c-1.8,1.3-3.2,2.8-5.5,4.5C24.4,56.1,19.7,62,14.6,64
	c-3.6-2.7-5.7-6.9-8.2-10.8C3.5,48.5,49.6,13,55.5,8.2c1-0.8,2.6-2.7,2.7-2.7C61.9,4,67.9,5,71.8,4.6C73.9,4.3,75.1,3.2,77.3,3.7z"
	/>
</svg>
