<?xml version="1.0" encoding="utf-8"?>
<!-- Generator: Adobe Illustrator 15.1.0, SVG Export Plug-In . SVG Version: 6.00 Build 0)  -->
<!DOCTYPE svg PUBLIC "-//W3C//DTD SVG 1.1//EN" "http://www.w3.org/Graphics/SVG/1.1/DTD/svg11.dtd">
<svg version="1.1" id="Layer_1" xmlns="http://www.w3.org/2000/svg" xmlns:xlink="http://www.w3.org/1999/xlink" x="0px" y="0px"
	 width="199px" height="91px" viewBox="0 0 199 91" enable-background="new 0 0 199 91" xml:space="preserve">
<path fill="#E5E8E2" d="M194.3,15.8c0.101,0.1,0.101,0.2,0.2,0.4C194.2,15.6,194,15.2,194.3,15.8z"/>
<path fill="#E5E8E2" d="M198.1,24.8c-0.399-3.1-2.199-5.9-3.699-8.7c0.5,1,1.199,2.4-0.2-0.4c-0.2-0.4-0.4-0.7-0.601-1.1
	c-0.199-0.4-0.399-0.8-0.6-1.2c-0.1-0.1-0.1-0.3-0.2-0.4c0.101,0.1,0.101,0.3,0.2,0.4c-2.4-4.6-5.6-10.1-11.2-9.9
	c-7.1,0.3-10.399,7.1-15.2,11.2c-2.8,2.4-5.6,4.5-8,7.3c-2.399,2.8-4.6,5.9-7.399,8.4c-4.3,3.9-10.9,2.5-16.2,2.1
	c-13.5-0.8-27.1,1.1-40.6,1.5c-12.6,0.4-25.3,0.6-37.9-0.4c-8.8-0.7-18.1-0.5-26.6-3.1c4.4-4.4,6.8-10.6,13-13
	c2.3-0.9,4.8,0,7.2-0.2c1.2-0.1,2.3-0.6,3.1-1.5c1.2-1.4,0.5-2.7-0.2-4.3C51,6.7,46.8,1.1,41.3,0.2c-6.3-1-8.9,2.7-13.1,6.4
	c-5,4.3-10.1,8.5-14.8,13.2c-1.9,1.9-3.8,3.9-5.3,6.1c-1,1.5-0.8,1.6-2.8,1.6c-1.4,0-4.2,0-4.3,1.9c0,2.7,2,3.7,4.3,4.3
	c2.7,0.7,5.2,1.5,7.9,2c1.6,0.3,4.9,0.6,5,2.9c-2.2,0.8-4.1,1.3-6.4,1.6c-1.3,0.1-7.3,2-7.8,1c-0.5-0.9-0.7-1.9-1.3-2.7
	C2.3,38,2,37.7,1.5,37.6c-1.3-0.3-1.4,0.1-1.4,1.3c-0.4,6.3,1.4,13,4,18.7C5.3,60.2,6.8,62,8.6,64.2c2.5,2.899,4.7,6,7.4,8.6
	c4.6,4.3,11.2,7.4,17.1,9.3c3.6,1.101,7.3,1.4,11,0.601c3.1-0.7,6-4.3,8.5-6.101c5.4-4,9-9.6,12.3-15.399c1.7-3,3.1-6.4,3.1-9.9
	c0-2.899-4.4-5.7-7.1-5.7c-6.3,0-7.6,9.7-10.3,13.9c-1.8,2.8-4.4,5.1-6.4,7.7c-2.2,2.899-5.9,4-9.3,3.7
	c-3.2-0.2-6.4-1.301-9.2-2.801c-1.5-0.8-2.9-1.699-4.2-2.899c-0.6-0.601-1.1-1.2-1.7-1.8c-1-0.4-1.9-0.9-2.7-1.4
	c-2.5-1.6-4.5-3.7-6.1-6.2c-1.2-1.7-3.4-5.1-2.9-7.399c-0.2-1.301-0.2-1.2,0.3-2.5c0.5-1.3,1.6-2.4,2.9-2.9c1.4-0.5,2.7-0.2,4.1,0.1
	c2.3-0.2,4.6-0.6,6.9-1c8.1-1.5,16.6-3.8,24.9-1.7c3.2,0.8,7.9,0.3,11.5,0.4c4.6,0.1,9.2,0.2,13.8,0.3c8.6,0.2,17.3,0.4,25.9,1.2
	c3.7,0.3,7.7-0.1,11.4-0.4c1.601-0.1,3.2-0.2,4.8-0.6c0.9-0.2,2.9-0.5,3.4-1.3l0,0c2.6,0,5.2-0.7,7.8-0.9c1.2-0.1,2.2,0.1,3.4,0.4
	c1.2-0.4,2.399-0.6,3.7-0.4c1.1,0.2,1.8,0.6,2.899,0.6c0.601,0,1.2,0.1,1.7,0.4c0.5-0.3,1-0.5,1.6-0.7c1.101-0.3,2.5-0.8,3.7-0.9
	c0.601,0,1.2,0,1.8,0.2c1.301,0.4,0.601,0.7,0.5,1.8c0.101-1.4-0.3,1.2-0.3,1.2c-0.399,1.7-0.899,3.4-1.3,5.2
	c-0.8,3.8-1.7,7.199-3.7,10.8c-1,1.7-2.1,3.3-3.399,4.8c-0.301,1.3-0.9,2.5-1.7,3.5c-1.7,2.5-4.3,4.5-7,5.8
	C116.5,77.4,102.8,72.4,96.5,62c-1.2-2-2.3-4.1-3.3-6.2c-1-2.2-0.9-4.8-2.2-6.8c-1.8-2.7-4.6-1-5.6,1.4c-1.1,2.6-0.5,5.399-0.3,8.1
	c0.3,3.5,2,6.7,3.7,9.7c0.7,1.3,1.5,2.6,2,4c0.4,1.3,0.5,3.2,1.3,4.3c4.1,5.5,10.6,8.7,17,10.4C114.7,88.4,120.9,89.3,126.7,89.5
	c5.5,0.1,10.1-3.8,13.6-7.6c1.5-1.601,2.601-3.4,4.3-4.9c1.101-1,1.301-2.8,1.7-4.1c0.7-1.801,1.7-1.2,2.7-2.4
	c0.8-1.1,0.7-2.6,1.5-3.7c1-1.3,2.1-2.5,2.9-4C154.6,60.4,156,57.5,156.6,55c1.301-5.7,5.2-11.5,8.9-15.8c1.8-2,3.5-4.3,5.8-5.7
	c1.2-0.7,1.8-0.8,2.3-2.1c0.5-1.2,1.801-1.8,3-2.2c5.4-2.2,11.4-0.7,17-0.4c1.101,0.1,2.301,0.1,3.4-0.1
	C198.1,27.5,198.3,26.2,198.1,24.8z"/>
<path fill="#BAC0B6" d="M43.2,8.5c-1.4,2.9-3.8,1.8-6,3c-1.1,0.6-1.2,1.4-2,2c-0.6,0.4-2.4,0.4-3,1c-2.1,2.1-2.9,5.7-5,8.3
	c-2.1,2.5-5.9,3.3-6,7.3c-2.7,0-5.3,0-8,0c2.1-6,7.8-8.6,12-12.3c4-3.5,7.7-7.8,12-11.1C40.3,6.2,41.1,8,43.2,8.5z"/>
<path fill="#82A190" d="M187.4,10.1c-1-0.3-2.301-0.4-3.4-0.3c-0.3,0.1-0.6,0.3-0.9,0.3c0,0.3-0.1,0.5-0.199,0.7
	c-0.101,0.1-0.2,0.2-0.4,0.4c0,0,0.2-0.2,0.4-0.4c-0.101,0.1-0.2,0.3-0.4,0.4c-2.4,2.4-10.3,5.8-13.6,13.6
	C165.6,32.6,183.8,14.7,186.1,18l-0.1-0.2c0.3,0.1,0.6,0.1,0.9,0.1C187.8,15.3,187.6,12.7,187.4,10.1z"/>
</svg>
