<?xml version="1.0" encoding="utf-8"?>
<!-- Generator: Adobe Illustrator 15.1.0, SVG Export Plug-In . SVG Version: 6.00 Build 0)  -->
<!DOCTYPE svg PUBLIC "-//W3C//DTD SVG 1.1//EN" "http://www.w3.org/Graphics/SVG/1.1/DTD/svg11.dtd">
<svg version="1.1" id="Layer_1" xmlns="http://www.w3.org/2000/svg" xmlns:xlink="http://www.w3.org/1999/xlink" x="0px" y="0px"
	 width="100px" height="151px" viewBox="0 0 100 151" enable-background="new 0 0 100 151" xml:space="preserve">
<path fill="#F3DCB1" d="M67.4,6.3c-0.254,3.297,0.423,6.617,0,9.9c-0.428,2.985-2.465,5.146-1.575,8.339
	c1.659,5.957,4.772,10.118,10.465,12.584c5.739,2.486,11.878,4.292,17.229,7.603c6.482,4.01,6.271,10.593,5.609,17.487
	c-1.611,16.85-1.824,33.801-3.01,50.688c-0.561,7.984-1.27,15.963-2.32,23.898c-7.208,3.682-14.691,5.903-22.3,8.549
	c-7.045,2.449-14.349,5.137-21.921,4.95c-7.845-0.192-15.577-2.368-23.236-3.866c-5.645-1.104-11.537,0.016-16.048-4.01
	C5.012,137.711,3.309,132.464,1,126c-2.252-6.637-0.682-14.588-0.149-21.389c0.724-9.24,1.17-18.506,2.239-27.717
	C3.938,69.597,4.91,61.962,7.013,54.9c0.84-2.822,2.061-5.527,3.898-7.846c2.397-3.026,6.089-4.352,8.574-7.192
	c2.859-3.268,6.134-5.445,9.254-8.428c3.175-3.035,4.595-6.111,6.656-9.828c1.661-2.995,3.478-4.87,3.216-8.523
	c-0.2-2.785-1.093-5.798-0.213-8.549C41.233-4.328,63.191,0.689,67.4,6.3C67.1,10.2,65,3.1,67.4,6.3z"/>
<path fill="#F99E4D" d="M62.642,11.254C60.062,4.297,48.705,6.591,43.7,6.323c-0.17,3.509-0.163,7.26,0.9,10.598
	c2.915-0.291,5.852-0.046,8.769,0.06C56.932,17.109,65.194,18.135,62.642,11.254z"/>
<path fill="#F99E4D" d="M86.4,122.5c2.3,2.6,0.3,7.7,0,10.7c-4.7,1.2-9.9,2.7-15.4,4.5c-2.6,0.8-4.9,1.8-7.3,2.7
	c-4.7,1.8-11,3.699-19.1,3.6c-3.8-0.1-9-1.8-13.6-2.7c-5.4-1-11.6-0.899-13.6-1.8c-6.1-2.5-8.7-10.4-10.9-17.1
	C26.5,130.4,68.1,133.5,86.4,122.5z"/>
<path fill="#F99E4D" d="M11,57.6c8,6.8,23.2,5.9,40,7.2c9.4,0.7,18.2,2.9,24.5,1.8c6.1-1.1,10.5-5.4,14.5-7.2c2.3,1,0.9,4.5,0.9,6.3
	C90.8,82.6,89.1,102.6,88.2,119.7c-5.7-1.601-12.8,1.7-19.101,3.6c-7.199,2.2-24.801,2.9-36.399,1.8c-4.7-0.398-9.2-1.8-13.6-2.699
	c-4.6-1-9.5-1.301-12.7-3.601C5.9,96.3,8.3,76.8,11,57.6z"/>
<path fill="#F99E4D" d="M42.833,22.7c2.77-2.077,9.782-0.579,13.07-0.474c2.385,0.076,3.714-0.884,4.232,1.717
	c0.413,2.064,0.942,4.109,1.647,6.094c2.472,6.958,7.531,13.085,14.846,15.14c2.961,0.832,22.021,5.75,12.617,10.685
	c-3.063,1.608-6.032,3.347-9.087,4.967c-4.221,2.239-9.366,1.628-13.913,0.983c-8.784-1.247-17.298-1.919-26.169-2.069
	c-7.411-0.125-16.118,0.166-22.804-3.565c-6.38-3.56,7.019-13.072,9.861-15.779c2.758-2.634,7.071-4.572,8.078-8.448
	c0.518-1.994,2.529-3.192,4.008-4.427C40.913,26.111,41.421,24.27,42.833,22.7C43.233,22.4,41.933,23.7,42.833,22.7z"/>
<path fill="#FDB827" d="M45.5,73.8c4.6-0.1,2,7.101,3.6,9.9c2.6,1.7,7.1,1.399,9.1,3.6c-0.4,3.8-3.9,4.5-2.7,9.9
	c1.4,2.8,7.1,1.399,8.2,4.5c-0.7,6.2-9,5.2-12.7,8.1c-3.1,2.4-2.8,4.2-5.5,7.2c-5-0.1-5.6-4.7-9.1-6.3c-4.8-0.4-11.5,1.2-13.6-1.8
	c-0.5-3.801,1.6-5,1.8-8.102C24,97.499,21,96.6,20.1,93.6c2.9-5.199,8.3-8,8.2-16.199c2.7-1.9,5.9,1.199,9.1,0.898
	c2.8-0.199,4.9-3.8,7.3-1.8C44.4,75,45.5,74.9,45.5,73.8z"/>
<path fill="#FFF56D" d="M43.7,80.1c1.2,4.2,2,8.801,7.3,9c0.5,2.9-0.6,4.2-0.9,6.301c0.2,3.699,2.5,5.399,3.6,8.101
	c-4.8,0.7-6.8,4-10.9,5.399c-2.9-2.801-7.3-4.199-13.6-3.601c2-4.2,0.8-10.2-2.7-11.7c2.8-3,5.1-6.398,6.4-10.8
	C37.5,83.6,41.9,84,43.7,80.1z"/>
<path fill="#FEC368" d="M41,88.2c2.1,2.899,3.9,8.2,1.8,12.6c-2.7,1.2-7.3,1.2-10,0C31.4,95.5,31.8,85.7,41,88.2z"/>
<path fill="#F15623" d="M36.5,91.8c4-1,4.3,4.4,2.7,6.3C37.1,98.4,35.7,98,34.7,97.2C34.4,94.5,36.7,94.4,36.5,91.8z"/>
</svg>
