<?xml version="1.0" encoding="utf-8"?>
<!-- Generator: Adobe Illustrator 15.1.0, SVG Export Plug-In  -->
<!DOCTYPE svg PUBLIC "-//W3C//DTD SVG 1.1 Tiny//EN" "http://www.w3.org/Graphics/SVG/1.1/DTD/svg11-tiny.dtd" [
	<!ENTITY ns_flows "http://ns.adobe.com/Flows/1.0/">
]>
<svg version="1.1" baseProfile="tiny"
	 xmlns="http://www.w3.org/2000/svg" xmlns:xlink="http://www.w3.org/1999/xlink" xmlns:a="http://ns.adobe.com/AdobeSVGViewerExtensions/3.0/"
	 x="0px" y="0px" width="100px" height="151px" viewBox="-0.1 -0.2 100 151" overflow="visible" xml:space="preserve">
<defs>
</defs>
<path fill="#F3DCB1" d="M67.4,6.3c-0.3,3.9,0.4,6.8,0,9.9c-0.4,2.8-2.1,3.9-1.8,7.2c0.1,1.3,1.1,3.6,1.8,5.4
	c3.2,7.4,8.7,8,17.3,11.7c5.4,2.3,11.8,4.9,13.6,9c2.4,5.4,0.4,14.2,0,21.6c-1.1,22.2-1.8,45.3-4.5,65.7c-4.7,2.4-9.4,4.6-15.4,6.3
	c-8.4,2.4-17.7,6.9-27.3,7.2c-7.9,0.2-19.3-3-28.2-4.5c-3.2-0.5-7.3-0.2-9.1-0.9c-2.1-0.8-7-5.4-9.1-9C3.2,133.4,2,128.8,1,126
	c-1.9-5.6-0.6-14.7,0-23.4c0.9-12.4,1.5-24.5,3.6-36c1.6-8.9,2.4-15.4,7.3-20.7c1.8-2,4.3-3.3,6.4-4.9c1.3-1,2.2-2.5,3.2-3.7
	c1.2-1.4,2.7-2.2,4.2-3.3c2.6-1.9,5.1-4.5,7-7c1.2-1.6,1.7-3.6,2.7-5.4c0.9-1.6,0.9-4.4,3.6-3.7c-0.3-5.4-3.8-13.8,2.8-17
	C48.1-2.1,65,3.1,67.4,6.3z"/>
<path fill="#F99E4D" d="M43.7,6.3c6.6,0.3,21.4-1.5,19.1,8.1c-4.4,1.9-12.3,0.4-18.2,0.9C43.7,12.9,43.5,9.8,43.7,6.3z"/>
<path fill="#F99E4D" d="M86.4,122.5c2.3,2.6,0.3,7.7,0,10.7c-4.7,1.2-9.9,2.7-15.4,4.5c-2.6,0.8-4.9,1.8-7.3,2.7
	c-4.7,1.8-11,3.7-19.1,3.6c-3.8-0.1-9-1.8-13.6-2.7c-5.4-1-11.6-0.9-13.6-1.8c-6.1-2.5-8.7-10.4-10.9-17.1
	C26.5,130.4,68.1,133.5,86.4,122.5z"/>
<path fill="#F99E4D" d="M11,57.6c8,6.8,23.2,5.9,40,7.2c9.4,0.7,18.2,2.9,24.5,1.8c6.1-1.1,10.5-5.4,14.5-7.2c2.3,1,0.9,4.5,0.9,6.3
	c-0.1,16.9-1.8,36.9-2.7,54c-5.7-1.6-12.8,1.7-19.1,3.6c-7.2,2.2-24.8,2.9-36.4,1.8c-4.7-0.4-9.2-1.8-13.6-2.7
	c-4.6-1-9.5-1.3-12.7-3.6C5.9,96.3,8.3,76.8,11,57.6z"/>
<path fill="#F99E4D" d="M40.3,22.7c0.4-0.3,0.8-0.6,1.3-0.6c5.1-0.3,10.5,0.2,15.7,0.2c1.7,10,5.5,17.5,13.6,21.7
	c3.4,1.7,8.2,2,11.8,3.6c1.3,0.6,2.4,1.3,3.8,1.9c1.5,0.6,3.2,2.3,2.8,4c-0.4,1.8-4.5,3.2-6,3.9c-3,1.5-5.4,3.9-8.8,4.6
	c-6.8,1.3-14.4-1.2-22.7-1.8c-14.5-1.1-31.3,1-39.1-5.4c-0.6-4.1,3.2-5.8,5.5-8.1c2.1-2.1,4.3-4.3,6.4-6.3c2.2-2.1,5.1-4,7.3-6.3
	c0.7-0.8,0.6-2.3,1.2-3.2c1.2-1.8,3.3-2.9,4.8-4.5C38.9,25.5,39.4,23.7,40.3,22.7z"/>
<path fill="#FDB827" d="M45.5,73.8c4.6-0.1,2,7.1,3.6,9.9c2.6,1.7,7.1,1.4,9.1,3.6c-0.4,3.8-3.9,4.5-2.7,9.9
	c1.4,2.8,7.1,1.4,8.2,4.5c-0.7,6.2-9,5.2-12.7,8.1c-3.1,2.4-2.8,4.2-5.5,7.2c-5-0.1-5.6-4.7-9.1-6.3c-4.8-0.4-11.5,1.2-13.6-1.8
	c-0.5-3.8,1.6-5,1.8-8.1c-0.6-3.3-3.6-4.2-4.5-7.2c2.9-5.2,8.3-8,8.2-16.2c2.7-1.9,5.9,1.2,9.1,0.9c2.8-0.2,4.9-3.8,7.3-1.8
	C44.4,75,45.5,74.9,45.5,73.8z"/>
<path fill="#FFF56D" d="M43.7,80.1c1.2,4.2,2,8.8,7.3,9c0.5,2.9-0.6,4.2-0.9,6.3c0.2,3.7,2.5,5.4,3.6,8.1c-4.8,0.7-6.8,4-10.9,5.4
	c-2.9-2.8-7.3-4.2-13.6-3.6c2-4.2,0.8-10.2-2.7-11.7c2.8-3,5.1-6.4,6.4-10.8C37.5,83.6,41.9,84,43.7,80.1z"/>
<path fill="#FEC368" d="M41,88.2c2.1,2.9,3.9,8.2,1.8,12.6c-2.7,1.2-7.3,1.2-10,0C31.4,95.5,31.8,85.7,41,88.2z"/>
<path fill="#F15623" d="M36.5,91.8c4-1,4.3,4.4,2.7,6.3c-2.1,0.3-3.5-0.1-4.5-0.9C34.4,94.5,36.7,94.4,36.5,91.8z"/>
</svg>
