<?xml version="1.0" encoding="utf-8"?>
<!-- Generator: Adobe Illustrator 15.1.0, SVG Export Plug-In . SVG Version: 6.00 Build 0)  -->
<!DOCTYPE svg PUBLIC "-//W3C//DTD SVG 1.1//EN" "http://www.w3.org/Graphics/SVG/1.1/DTD/svg11.dtd">
<svg version="1.1" id="Layer_1" xmlns="http://www.w3.org/2000/svg" xmlns:xlink="http://www.w3.org/1999/xlink" x="0px" y="0px"
	 width="100px" height="151px" viewBox="0 0 100 151" enable-background="new 0 0 100 151" xml:space="preserve">
<path fill="#F3DCB1" d="M67.4,6.3c-0.254,3.297,0.423,6.617,0,9.9c-0.427,2.985-2.465,5.146-1.575,8.339
	c1.659,5.957,4.773,10.118,10.465,12.584c5.74,2.486,11.878,4.292,17.229,7.603c6.483,4.01,6.271,10.593,5.61,17.487
	c-1.612,16.849-1.825,33.801-3.01,50.687c-0.56,7.985-1.27,15.963-2.32,23.899c-7.208,3.682-14.692,5.903-22.3,8.549
	c-7.045,2.449-14.349,5.137-21.921,4.95c-7.845-0.193-15.577-2.368-23.236-3.867c-5.645-1.104-11.537,0.016-16.048-4.009
	C5.012,137.711,3.309,132.464,1,126c-2.252-6.637-0.682-14.588-0.149-21.388c0.724-9.241,1.17-18.506,2.239-27.718
	C3.938,69.597,4.91,61.962,7.013,54.9c0.84-2.822,2.061-5.527,3.898-7.846c2.397-3.026,6.089-4.352,8.574-7.192
	c2.859-3.268,6.134-5.445,9.254-8.428c3.175-3.035,4.595-6.111,6.656-9.828c1.661-2.995,3.478-4.87,3.216-8.523
	c-0.2-2.785-1.093-5.798-0.213-8.549C41.233-4.328,63.191,0.689,67.4,6.3C67.1,10.2,65,3.1,67.4,6.3z"/>
<path fill="#F99E4D" d="M43.7,6.3c6.6,0.3,21.399-1.5,19.1,8.1c-4.399,1.9-12.3,0.4-18.2,0.9C43.7,12.9,43.5,9.8,43.7,6.3z"/>
<path fill="#F99E4D" d="M86.4,122.5c2.3,2.6,0.3,7.7,0,10.7c-4.7,1.2-9.9,2.7-15.4,4.5c-2.6,0.8-4.9,1.8-7.3,2.7
	c-4.7,1.8-11,3.699-19.1,3.6c-3.8-0.1-9-1.8-13.6-2.7c-5.4-1-11.6-0.899-13.6-1.8c-6.1-2.5-8.7-10.4-10.9-17.1
	C26.5,130.4,68.1,133.5,86.4,122.5z"/>
<path fill="#F99E4D" d="M11,57.6c8,6.8,23.2,5.9,40,7.2c9.4,0.7,18.2,2.9,24.5,1.8c6.1-1.1,10.5-5.4,14.5-7.2c2.3,1,0.9,4.5,0.9,6.3
	C90.8,82.6,89.1,102.6,88.2,119.7c-5.7-1.601-12.8,1.7-19.101,3.6c-7.199,2.2-24.8,2.9-36.399,1.8c-4.7-0.399-9.2-1.8-13.6-2.699
	c-4.6-1-9.5-1.301-12.7-3.601C5.9,96.3,8.3,76.8,11,57.6z"/>
<path fill="#F99E4D" d="M40.3,22.7c0.4-0.3,0.8-0.6,1.3-0.6c5.1-0.3,10.5,0.2,15.7,0.2C59,32.3,62.8,39.8,70.9,44
	c3.399,1.7,8.199,2,11.8,3.6c1.3,0.6,2.399,1.3,3.8,1.9c1.5,0.6,3.2,2.3,2.8,4c-0.399,1.8-4.5,3.2-6,3.9c-3,1.5-5.399,3.9-8.8,4.6
	c-6.8,1.3-14.4-1.2-22.7-1.8c-14.5-1.1-31.3,1-39.1-5.4c-0.6-4.1,3.2-5.8,5.5-8.1c2.1-2.1,4.3-4.3,6.4-6.3c2.2-2.1,5.1-4,7.3-6.3
	c0.7-0.8,0.6-2.3,1.2-3.2c1.2-1.8,3.3-2.9,4.8-4.5C38.9,25.5,39.4,23.7,40.3,22.7z"/>
<path fill="#FDB827" d="M45.5,73.8c4.6-0.1,2,7.101,3.6,9.9c2.6,1.7,7.1,1.399,9.1,3.6c-0.4,3.8-3.9,4.5-2.7,9.9
	c1.4,2.8,7.1,1.399,8.2,4.5c-0.7,6.2-9,5.2-12.7,8.1c-3.1,2.4-2.8,4.2-5.5,7.2c-5-0.1-5.6-4.7-9.1-6.3c-4.8-0.4-11.5,1.2-13.6-1.8
	c-0.5-3.801,1.6-5,1.8-8.101c-0.6-3.3-3.6-4.2-4.5-7.2c2.9-5.199,8.3-8,8.2-16.199c2.7-1.9,5.9,1.199,9.1,0.899
	c2.8-0.2,4.9-3.8,7.3-1.8C44.4,75,45.5,74.9,45.5,73.8z"/>
<path fill="#FFF56D" d="M43.7,80.1c1.2,4.2,2,8.801,7.3,9c0.5,2.9-0.6,4.2-0.9,6.301c0.2,3.699,2.5,5.399,3.6,8.1
	c-4.8,0.7-6.8,4-10.9,5.4c-2.9-2.801-7.3-4.2-13.6-3.601c2-4.2,0.8-10.2-2.7-11.7c2.8-3,5.1-6.399,6.4-10.8
	C37.5,83.6,41.9,84,43.7,80.1z"/>
<path fill="#FEC368" d="M41,88.2c2.1,2.899,3.9,8.2,1.8,12.6c-2.7,1.2-7.3,1.2-10,0C31.4,95.5,31.8,85.7,41,88.2z"/>
<path fill="#F15623" d="M36.5,91.8c4-1,4.3,4.4,2.7,6.3C37.1,98.4,35.7,98,34.7,97.2C34.4,94.5,36.7,94.4,36.5,91.8z"/>
</svg>
