<?xml version="1.0" encoding="utf-8"?>
<!-- Generator: Adobe Illustrator 15.1.0, SVG Export Plug-In  -->
<!DOCTYPE svg PUBLIC "-//W3C//DTD SVG 1.1 Tiny//EN" "http://www.w3.org/Graphics/SVG/1.1/DTD/svg11-tiny.dtd" [
	<!ENTITY ns_flows "http://ns.adobe.com/Flows/1.0/">
]>
<svg version="1.1" baseProfile="tiny"
	 xmlns="http://www.w3.org/2000/svg" xmlns:xlink="http://www.w3.org/1999/xlink" xmlns:a="http://ns.adobe.com/AdobeSVGViewerExtensions/3.0/"
	 x="0px" y="0px" width="262px" height="305px" viewBox="-0.9 -0.3 262 305" overflow="visible" xml:space="preserve">
<defs>
</defs>
<path fill="#81C566" d="M237.1,70.2c0.3,0.5,0.6,1.1,1,1.5c3.2,3.3,8.8,2.4,12.4,5.3c3.9,3.1,6.3,8.7,7.7,13.3
	c1.8,6.3,3,15.5,1.8,21.6c-1,4.9-4.7,7.9-6.4,11.7c2.4,8.8,3.1,19.3-0.9,26.1c-0.2,0.4-1.7,0.6-1.8,0.9c-2.1,4.6-7.2,5.8-13.6,7.2
	c0.1,0-1.2,15.5-2.3,17.2c-2.9,4.5-9.9,6.4-14.9,7.1c-8.1,1-18.1,0.3-24.5-1.8c-2.3,1.6-3.7,5-6.4,7.2c-5.6,4.7-23.2,8-31.8,2.7
	c-0.8,18.1-2.8,35.5,0.9,50.4c2.6,10.3,7.3,20.9,11.8,30.6c2.8,5.9,5.6,10.7,9.1,16.2c1.1,1.7,3.6,4,2.7,6.3
	c-3.2,0.3-5.6-1.2-8.2-2.7c-18.7-10.7-29.2-38.8-30.9-59.4c-1.1-13.1-0.9-28.4,0.9-41.4c0.9-6.5,4-12.6,1.8-18.9
	c-7.8-1-12.2-5.3-16.4-9.9c-2.8,1.8-7,2.1-11.8,1.8c4.4,13.4,11.5,26.1,13.6,43.2c1,8.3,2.4,16.6,1.8,27
	c-0.6,12.2-4.2,26.2-9.1,37.8c-5.8,13.7-12.7,24.4-21.8,29.7c-2.1,1.2-5.8,3.7-9.1,2.7c3.4-24.2,20.6-41.8,22.7-67.5
	c0.8-9.1,0-19.8-1.8-29.7c-0.8-2.9-5.6-2.8-7.3-5.4c-0.7-2.9-0.6-6.6-1.8-9c-6,1.7-12.1,2.6-18.2,3.6c-10.9,1.8-21.2,4-29.1-1.8
	c-3.8-2.8-8.6-10.4-13.6-12.6c-3.8-1.6-7.7-0.1-12.7-1.8c-3.2-1.1-6.5-4-9.1-6.3c-5.3-4.6-9.6-10.7-10.9-19.8c-0.6-4,1-9.2,0-14.4
	c-1-5.1-6.1-9.8-8.2-15.3c-3.9-10-3.9-30.9,0.9-41.4C6.4,76.4,10.8,70,21,70.5c0-11.1,3.4-15.3,9.1-22.5
	c4.6-5.8,12.9-14.8,20.9-16.2c2.2-0.4,5.9,0.9,8.2,0c4.1-1.6,6.1-6.7,10-9.9c1.7-1.4,4-2.3,6.4-3.6c6-3.4,14.6-7.4,28.2-5.4
	c4.1,0.6,6.4,1.4,10.9,4.5c4.2-1.2,8.3-5.8,13.6-9c2.4-1.4,5.2-2.3,8.2-3.6c5-2.3,16.9-7,26.4-3.6c4.2,1.5,7.3,7,10.9,10.8
	c25.8-1,38.4,11.2,42.7,31.5c0.3,1.6,9.1,5.1,10.6,6.2c3.6,2.5,6.6,5.5,8.2,9.6C236.5,62.7,235.6,67,237.1,70.2z"/>
<path fill="#C5DE92" d="M159.3,13.8c4.1,3.3,3.8,8.3,9.9,9.6c7.7,1.7,16.4-1.4,23.5,3c4,2.5,7.8,6.2,9.9,10.5c2,4.1,0.4,8.2,1.9,12
	c1.9,4.8,6,5.3,10.9,8.1c4.7,2.7,9.1,4.7,9.1,9.9c0,5.2-6,5.3-5.5,10.8c1,10.1,9.1,3.3,19.1,6.3c2,0.6,5.2,4.2,7.3,6.3
	c1.2,1.3,3.8,14.7,2.7,18.9c-1.1,4.4-9.4,6.6-7.3,16.2c0.1,0.7,1.6,2.3,1.8,3.6c0.6,4.1,1.9,11.2-0.9,14.4
	c-3.2,3.7-11.6,1.5-17.3,4.5c-3.2,7,2.7,11.3,1.8,18.9c-3.8,4.8-12.6,3.8-17.9,3.6c-6.6-0.3-12.2-9.7-18.6-8.4
	c-7.8,1.6-3.4,14.5-11.8,17.7c-5.6,2.2-14.5,2-18.2-3.5c-3.1-4.6-3.2-14.3,2.2-17.1c4.6-2.5,11.7,0.2,15.5-4
	c4-4.4,1.9-16.5-3.8-18.9c-4.4,2.4,0.5,8.4-0.9,13.5c-4.6,0.5-6.1-0.4-8.2-0.9c-2-0.5-3.6-2.4-6.4-1.8c-5.3,1.1-6.2,12.1-12.7,10.8
	c-6.4-1.3-3.1-14.9-12.7-15.3c-4.3-0.2-6.2,4.5-9.8,6c-2.9,1.1-8.1,1.9-10.4-0.3c-2.7-2.4-2.6-7.3-5.3-9.4
	c-4.8-3.7-8.2,1.5-11.7,3.7c-3.1,2-5.8,5.4-10,5.4c-4.3,0-6.4-2.5-9.1-4.5c-1.9-1.4-6-3.3-6.4-7.2c-2.9,3.3-5.4,4.7-5.5,9
	c-0.1,8.9,13.8,17.2,25.4,15.3c4-0.6,6.1-3.8,10-4.5c2.7,12,14.1,24.2,9.4,31.8c-1.9,3-5.4,0.8-8.5,0.6c-7.2-0.5-15.4,1.9-22.7,1.8
	c-13.8-0.2-17.6-7.1-24.5-15.3c-1.5-1.8-2.8-3.7-4.5-4.5c-3.4-1.5-7.8-0.2-10.9-0.9c-3.2-0.7-10.7-5.7-12.7-9
	c-4.5-7.3,0.4-24.5-5.5-30.6c-1.1-1.1-2.6-4.9-3.6-7.2c-3-6.3-5.4-12.6-4.5-23.4c0.5-5.7,1.3-12.7,7.3-17.1c5.7-1.1,8.9,4,13.6,0.9
	c5.3-6.1-0.3-12,1.8-18.9c1.9-6.1,6.5-12.3,11.3-16.4c2.3-2,4.9-4,8.1-4.3c3.6-0.3,7,2.5,10.6,1.8c6.4-1.3,8.3-9.7,12.7-13.5
	c4.1-3.5,17.9-9.8,28.2-5.4c2.7,1.2,2.3,1.8,4.5,4.5c1.7,2.1,1.7,3.3,4.5,3.6c5.7,0.5,7.3-6.5,10.9-9.9c1.8-1.7,8.5-5.4,11.8-7.2
	c5.6-3,14.9-8.3,21.2-4.2C158.8,13.4,159,13.6,159.3,13.8z"/>
<path fill="#80BE8A" d="M41,130.8c4.9-0.2-3.7,10.9,4.5,9c0.1,2.2-0.5,3.7-1.8,4.5c1.6,3.2,7.3,2.4,8.2,6.3c-4.9,0-7.4-2.3-10.9-3.6
	c0.1-1.4-0.4-3.4,0.9-3.6C38.7,141.8,37.8,133.2,41,130.8z"/>
<path fill="#80BE8A" d="M210,90.3c7.3,2.7,3.6,17.7-6.4,14.4c-2-0.2-0.4,3.2-0.9,4.5c-4.6,1.4-6.5,5.5-9.1,9
	c-8,1.2-15.2-2.8-11.8-9.9c4.1,0.5,3.7,5.3,8.2,5.4c2.7-0.6,3-3.6,2.7-7.2c1.1-1,3.2-1,5.4-0.9c0.3-3.7-1.2-3.5,0-6.3
	c3.6-0.3,5,1.6,9.1,0.9C210.5,99.1,210.1,94.5,210,90.3z"/>
<path fill="#80BE8A" d="M59.2,64.2c-1,2.9-2.8,5.3-3.1,9c2.9,3.2,4-3.6,6-0.9c0,2.4,0,4.8,0,7.2c3-0.3,3.7-2.4,6.7-0.9
	c0.7,2.6,1.6,5.2,3.8,6.3c5.3,1.4,2.7-5.2,6.4-5.4c4.1,0.7,1,7.9-1.8,9c-1.9,0.7-4.1-0.3-6.3,0.2c-1-2.3-3.6-3.1-3.6-6.1
	c-2.4,0-5.2,0-8.2,0c0-1,0-3.5,0-5c0-2-4.3,0-5-1.8C54.2,70.6,53.8,64.2,59.2,64.2z"/>
<path fill="#80BE8A" d="M163.7,57c0.3,2.1,1.4,3.4,0.9,6.3c1.2,2.1,4.3,8.9-1.8,8.1c2-4.9-3.4-4.8-1.8-11.7
	c-0.8-2.2-6.3,0.3-7.3-1.8c-0.8-2.5,1.3-2.3,0.9-4.5c-0.9-4.1-3.7,1.5-5.5-0.9c1.6-4.8,9.7-4.7,8.2,2.7
	C158.4,56.8,162,55.9,163.7,57z"/>
</svg>
