<?xml version="1.0" encoding="utf-8"?>
<!-- Generator: Adobe Illustrator 15.1.0, SVG Export Plug-In  -->
<!DOCTYPE svg PUBLIC "-//W3C//DTD SVG 1.1 Tiny//EN" "http://www.w3.org/Graphics/SVG/1.1/DTD/svg11-tiny.dtd" [
	<!ENTITY ns_flows "http://ns.adobe.com/Flows/1.0/">
]>
<svg version="1.1" baseProfile="tiny"
	 xmlns="http://www.w3.org/2000/svg" xmlns:xlink="http://www.w3.org/1999/xlink" xmlns:a="http://ns.adobe.com/AdobeSVGViewerExtensions/3.0/"
	 x="0px" y="0px" width="231px" height="286px" viewBox="-0.6 -0.6 231 286" overflow="visible" xml:space="preserve">
<defs>
</defs>
<path fill="#D7E592" d="M174.5,78.3c-0.7,6.5-8.4,5-13.6,6.3c-3.9,1-13.5,2.4-14.1,6.9c-0.5,3.7,6.1,11.1,7.7,14.7
	c1.3,2.9,2.4,6.1,3.6,9c1.1,2.6,2.7,5.5,3.6,8.1c1.3,3.4,1.4,7,2.7,9.9c1.1,2.5,2.9,4.9,4.5,7.2c3.1,4.3,7.5,9,11.8,12.6
	c2.8,2.3,6.7,1.9,8.2,6.3c-1.5,7.2-14.4,3.1-20,6.3c3.8,6.7,8.8,11.8,13.6,17.1c8.6,9.5,17.3,18.6,28,25.9
	c4.6,3.1,20.7,9.3,19.3,16.4c-0.2,0.8-3.4,4.2-4.5,4.5c-2.3,0.6-5-1.8-10-3.6c-12.9-4.7-25-6-42.7-7.2c-13.6-0.9-25.5,0.1-38.2,3.6
	c-0.4,12.3,0,21.1,2.7,30.6c0.1,0.5,1.7,2.4,1.8,2.7c1.5,6.7,4.1,13.2,7.3,18.9c0.9,1.7,1.8,3.9,2.7,5.4c1,1.6,3.5,2.1,2.7,4.5
	c-3.2,0.6-8.1-0.3-10.9-1.8c-0.4-0.2-0.6-1.6-0.9-1.8c-1.6-0.7-3.2-1.7-4.5-3.6c-0.6-0.8-1.4-2.8-1.8-3.6
	c-6.1-11.1-10.2-30.2-7.3-48.6c-5.2,0.8-9.5,2.6-13.6,4.5c-1.9,21-3.1,42.5-18.2,50.4c3.6-15.3,9.5-28.4,10-46.8
	c-4-0.8-9.1,1.5-13.6,2.7c-18.6,4.9-40.8,8.1-58.9-0.7c-4.7-2.3-7.1-3.1-12.7-2.8c-4.5,0.3-14.8,5.5-18.3,1.6
	c-3.3-4.9,2.8-6.9,5.4-9.9c0.8-0.9,1.1-2.8,1.8-3.6c3.3-3.7,7.6-7.2,10.9-10.8c1.9-2,3.7-4.3,5.5-6.3c1-1.1,1.8-1.6,2.7-2.7
	c0.9-1,0.9-2.5,1.8-3.6c3.2-4,7.3-7.6,9.1-12.6c-4.2,0.4-9,2.7-13.6,3.6c-4.7,0.9-9.4,2.2-12.7,0c0.1-5.8,6-7.9,9.1-11.7
	c1.1-1.3,2.1-2.6,3.6-4.5c0.9-1.1,1.4-2.2,2.7-3.6c1.6-1.6,3-6.3,4.5-9c0.2-0.4,1.7-0.6,1.8-0.9c7.4-16.2,18.7-33.8,26.4-51.3
	c-10.4-0.7-14.3,12.5-23.6,7.2c-1-5.8,4.5-7.2,8.5-9.6c5.5-3.3,8.2-8.5,11.5-13.8c3-4.8,6.2-9.6,9.1-14.4c1.4-2.3,3.1-4.6,4.5-7.2
	c5.1-8.8,10.2-18,14.1-27.4c4.3-10.4,10.5-20.2,15.9-30.1c1.3-2.4,2-4.5,3.6-7.2c0.9-1.5,2-3,3.6-4.5c1.5-0.3,1.6,0.9,2.7,0.9
	c3.1,6,2.6,12.1,5.5,18c4.1,8.3,7.8,20.3,13.6,27.9c3.8,5,9.6,9.8,15.4,14.4c5.6,4.4,12.2,9.2,18.2,11.7
	C166.6,74.6,171.9,73.6,174.5,78.3z"/>
<path fill="#A5CF4C" d="M15.5,224.9c2.5-4.6,6.6-7.9,10-11.7c5.2-5.7,9.8-11.2,14.5-18c3-4.3,4.6-8.3,7.3-14.4
	c0.8-1.7,4.1-2.6,2.7-7.2c-4.2-3.1-6.8,2.2-10,3.6c-2.1,0.9-4.7,1-7.3,1.8c-2.3,0.7-4.4,2.3-7.3,1.8c1.7-3.6,4.2-6.7,6.4-9.9
	c2.2-3.3,3.5-6.5,5.5-9.9c0.9-1.7,2.8-3,3.6-4.5c2.5-4.6,4.6-10.1,7.3-15.3c1.7-3.4,3.7-6.5,5.5-9.9c1.8-3.4,2.9-7.2,4.5-10.8
	c2.4-5.3,5-9.7,8.2-15.3c0.6-1,0.3-1.8,0.9-2.7c0.3-0.5,1.6-1.4,1.8-1.8c0.7-1.5,0.2-3.8,0.9-5.4c1.3-3.1,5.4-6.9,6.4-11.7
	c-2.3-1.5-3.7,1.8-5.4,3.6c-1.4,1.5-3.8,5.6-5.5,8.1c-1.1,1.6-0.6,5-3.6,3.6c-2.3,0-1.1-0.7-0.9-1.8c17.6-26.4,32.8-55.1,46.3-85.5
	c4.8,13.7,6.7,26.4,13.6,36.9c8.3,12.6,21.2,20.3,33.6,28.8c-3.3,2.7-10.2,1.9-10.9,7.2c-4.7-1.7-4.4-8.2-10-9
	c-2.3,4,2.5,9.2,4.5,12.6c0.8,1.4,1.2,2.4,1.8,3.6c2.9,5.6,6.1,11.6,9.1,18c0.8,1.6,1.7,3.8,2.7,6.3c3.3,8.1,5.4,17.8,10,25.2
	c3.8,6.1,9.7,9.4,12.7,15.3c-3.6,0.6-7.9,0.6-10.9,1.8c-1.3,7.2,2.2,12.5,5.5,17.1c9,12.8,20.4,23.7,32.7,34.2
	c-0.4,1.3-0.8-0.1-1.8,0c-17.5-1.8-31.4-3.8-45.4-2.7c-7.6,0.6-14.5,2.8-21.8,4.5c-6.4,1.5-12.2,2.7-18.2,5.4
	c-2.4,1.1-9.1,2.4-12.7,3.6c-13.4,4.5-29.3,9.8-50.9,8.1c-4.2-0.3-8.9-1.5-13.6-2.7C32.3,224.6,23.6,224.9,15.5,224.9z"/>
<path fill="#80BE8A" d="M60,186.3c1.1-0.2,1.6,0.2,1.8,0.9c1.9,4-2.4,8.8-4.5,11.7c3.6,1.2,2,7.6,6.4,8.1c-1,5.2,1.9,6.5,2.7,9.9
	c-8.4,2.3-4.6-7.5-10.9-7.2c0.2-3.1,0.7-6.7-3.6-5.4c-0.4-2.2-0.8-3.4,0-5.4c0.5-1.3,3.1-2.5,3.6-3.6
	C57.1,192.2,58.1,188.9,60,186.3z"/>
<path fill="#80BE8A" d="M138.1,130.4c0.9,0,1.8,0,2.7,0c-2.1,9,5.4,17,6.4,26.6c-3.1,0.7-3.8-1.1-5.4-1.9c0.7,3.1-1,4.3-1.8,5.3
	c-2.1,0-4.2,0-6.4,0c-1.5-3-0.8-6.1,0.9-8.2c2-0.2,2.9,0.7,2.7,2.6c2-1.3-0.4-6.6,4.5-5C139.6,144.2,137.5,138.4,138.1,130.4z"/>
<path fill="#80BE8A" d="M95.4,69.3c5,1.2-1.6,7.7-1.8,9.9c-0.8,2.9,3,1.2,2.7,3.6c-1.1,4.9,0,4.7,0.9,9c-2.8,0.6-3.3-0.9-5.5-0.9
	c-0.9-3,3.5-6.9-1.8-6.3C90.2,77.9,93.5,74.2,95.4,69.3z"/>
</svg>
